<svg width="120" height="138" viewBox="0 0 120 138" fill="none" xmlns="http://www.w3.org/2000/svg">
<path d="M23.1479 38.3411H32.15C37.8968 38.3411 39.6248 40.5799 39.6248 43.6984C39.6667 44.6484 39.4499 45.592 38.9971 46.4294C38.5444 47.2669 37.8726 47.9671 37.0528 48.456C38.1019 48.7757 39.0057 49.4502 39.6075 50.3629C40.2093 51.2756 40.4713 52.3689 40.3482 53.4535C40.3482 57.8913 36.9323 59.6904 31.949 59.6904H23.1479V38.3411ZM26.8452 41.8193V47.1367H32.15C34.521 47.1367 35.8874 46.1772 35.8874 44.538C35.8874 42.8988 34.9229 41.8193 31.8686 41.8193H26.8452ZM26.8452 50.495V56.2122H31.8285C35.2042 56.2122 36.6108 55.3326 36.6108 53.2536C36.6108 51.1747 35.3248 50.495 32.0696 50.495H26.8452Z" fill="#FB5F37"/>
<path d="M43.8442 38.3411H59.9193V41.8193H47.863V47.1767H59.3164V50.535H47.5415V56.2122H60.2809V59.6904H44.2059L43.8442 38.3411Z" fill="#FB5F37"/>
<path d="M62.8131 43.9777C62.8131 40.6994 66.2291 37.9407 71.2123 37.9407C72.7318 37.8766 74.2491 38.112 75.6768 38.6335C77.1045 39.1549 78.4144 39.9521 79.5311 40.9792L77.5218 43.6179C75.7493 42.101 73.4687 41.3019 71.1319 41.379C68.8814 41.379 66.6711 42.0987 66.6711 43.8978C66.6711 48.2156 79.933 45.6569 79.933 53.493C79.933 57.2511 76.2358 59.8098 71.6946 59.8098C69.9299 59.8171 68.1823 59.4663 66.5585 58.7789C64.9347 58.0914 63.4688 57.0819 62.2505 55.8118L64.4608 53.2131C65.45 54.1991 66.6289 54.9764 67.9271 55.4985C69.2253 56.0206 70.616 56.2768 72.0161 56.2516C74.5881 56.2516 76.0348 55.2921 76.0348 53.6529C76.075 49.0552 62.8131 51.9737 62.8131 43.9777Z" fill="#FB5F37"/>
<path d="M80.8574 38.3411H98.982V41.8193H91.7482V59.6904H88.051V41.8193H80.8574V38.3411Z" fill="#FB5F37"/>
<path d="M16.7983 96.2719V74.9226H25.4789C32.7126 74.9226 34.4005 78.5608 34.4005 81.9191C34.4005 85.2774 32.15 88.9556 25.4387 88.9556H20.4956V96.2719H16.7983ZM20.4956 78.3609V85.5173H25.3583C28.9752 85.5173 30.5023 84.118 30.5023 81.9191C30.5023 79.7202 29.2163 78.4009 25.5592 78.4009L20.4956 78.3609Z" fill="#FB5F37"/>
<path d="M37.5757 96.2719V74.9226H46.0151C52.6862 74.9226 54.4946 78.161 54.4946 81.5593C54.5072 82.9587 54.0523 84.3227 53.2012 85.4371C52.3502 86.5514 51.1513 87.3531 49.7927 87.7162L56.2629 96.2719H51.6815L45.8141 88.2759H41.2729V96.2719H37.5757ZM41.2729 78.4009V84.9576H46.0954C48.9086 84.9576 50.5964 83.6782 50.5964 81.5593C50.5964 79.4403 49.5114 78.4009 45.8945 78.4009H41.2729Z" fill="#FB5F37"/>
<path d="M58.5132 74.9226H62.2104V96.2719H58.5132V74.9226Z" fill="#FB5F37"/>
<path d="M85.1174 92.554C84.0865 93.8605 82.7581 94.9044 81.2418 95.5996C79.7255 96.2947 78.0648 96.6212 76.3967 96.552C74.9234 96.6647 73.443 96.4603 72.0562 95.9527C70.6694 95.4452 69.4088 94.6464 68.3602 93.6108C67.3115 92.5751 66.4995 91.3269 65.9792 89.951C65.4589 88.5752 65.2426 87.1039 65.3451 85.6375C65.2825 84.1823 65.5245 82.7301 66.0557 81.3728C66.587 80.0156 67.3959 78.7829 68.4311 77.753C69.4664 76.7231 70.7054 75.9184 72.0697 75.3899C73.434 74.8614 74.8937 74.6207 76.3565 74.6829C77.9561 74.5819 79.5568 74.863 81.025 75.5029C82.4931 76.1427 83.7861 77.1228 84.7959 78.3611L82.3444 80.68C81.5901 79.8577 80.6617 79.2124 79.6262 78.7906C78.5906 78.3688 77.4738 78.1812 76.3565 78.2412C75.3698 78.181 74.3817 78.3321 73.4588 78.6842C72.5359 79.0364 71.6996 79.5813 71.0063 80.2823C70.3131 80.9833 69.7791 81.8241 69.4403 82.7479C69.1015 83.6717 68.9658 84.6571 69.0423 85.6375C68.9903 86.6224 69.1469 87.6072 69.5021 88.5281C69.8573 89.4489 70.4032 90.2851 71.1042 90.9826C71.8053 91.68 72.6458 92.223 73.5714 92.5764C74.497 92.9297 75.487 93.0856 76.477 93.0338C77.665 93.0573 78.8434 92.8185 79.9274 92.3346C81.0115 91.8507 81.9742 91.1337 82.7463 90.2352L85.1174 92.554Z" fill="#FB5F37"/>
<path d="M87.7295 74.9226H103.805V78.4009H91.7482V83.9581H102.88V87.3164H91.4267V92.9936H103.965V96.4718H87.8902L87.7295 74.9226Z" fill="#FB5F37"/>
<path d="M60 137.851L0 103.388V34.4628L60 0L120 34.4628V103.388L60 137.851ZM4.01875 101.07L60 133.054L115.981 101.07V36.7817L60 4.79761L4.01875 36.7817V101.07Z" fill="#FB5F37"/>
</svg>
