<svg width="180" height="51" viewBox="0 0 180 51" fill="none" xmlns="http://www.w3.org/2000/svg">
<path d="M177 0.5H3C1.61929 0.5 0.5 1.61929 0.5 3V48C0.5 49.3807 1.61929 50.5 3 50.5H177C178.381 50.5 179.5 49.3807 179.5 48V3C179.5 1.61929 178.381 0.5 177 0.5Z" fill="black" stroke="white"/>
<path d="M54.0066 31.4179L55.5377 27.5373H59.9585L57.8605 21.6506L60.4844 15L68 34.9999H62.4575L61.1733 31.4179H54.0066Z" fill="white"/>
<path d="M49.2781 35L57.3237 15H51.9898L46.4861 27.9245L42.5725 15.0001H38.4726L34.2704 27.9245L31.3069 22.0351L28.625 30.3161L31.3479 35H36.5972L40.3945 23.4095L44.0151 35H49.2781Z" fill="#FB5F37"/>
<path d="M20.0631 28.135H23.3486C24.3438 28.135 25.23 28.0237 26.0072 27.801L26.8568 25.1775L29.2315 17.8449C29.0505 17.5575 28.844 17.2857 28.6118 17.0297C27.3925 15.677 25.6087 15.0007 23.2601 15.0007H15V35.0007H20.0631V28.135ZM24.4119 19.6019C24.8881 20.0823 25.1262 20.7252 25.1262 21.5306C25.1262 22.3421 24.9168 22.9858 24.498 23.4615C24.0389 23.9901 23.1934 24.2544 21.9618 24.2544H20.0631V18.8813H21.9757C23.1236 18.8813 23.9357 19.1215 24.4119 19.6019Z" fill="white"/>
<path d="M78.1211 16.0801H82.1641V17H76.9902V8.46875H78.1211V16.0801ZM87.3914 17C87.3289 16.875 87.2781 16.6523 87.2391 16.332C86.7352 16.8555 86.1336 17.1172 85.4344 17.1172C84.8094 17.1172 84.2957 16.9414 83.8934 16.5898C83.4949 16.2344 83.2957 15.7852 83.2957 15.2422C83.2957 14.582 83.5457 14.0703 84.0457 13.707C84.5496 13.3398 85.2566 13.1562 86.1668 13.1562H87.2215V12.6582C87.2215 12.2793 87.1082 11.9785 86.8816 11.7559C86.6551 11.5293 86.3211 11.416 85.8797 11.416C85.493 11.416 85.1687 11.5137 84.907 11.709C84.6453 11.9043 84.5145 12.1406 84.5145 12.418H83.4246C83.4246 12.1016 83.5359 11.7969 83.7586 11.5039C83.9852 11.207 84.2898 10.9727 84.6727 10.8008C85.0594 10.6289 85.4832 10.543 85.9441 10.543C86.6746 10.543 87.2469 10.7266 87.6609 11.0938C88.075 11.457 88.2898 11.959 88.3055 12.5996V15.5176C88.3055 16.0996 88.3797 16.5625 88.5281 16.9062V17H87.3914ZM85.5926 16.1738C85.9324 16.1738 86.2547 16.0859 86.5594 15.9102C86.8641 15.7344 87.0848 15.5059 87.2215 15.2246V13.9238H86.3719C85.0437 13.9238 84.3797 14.3125 84.3797 15.0898C84.3797 15.4297 84.493 15.6953 84.7195 15.8867C84.9461 16.0781 85.2371 16.1738 85.5926 16.1738ZM94.1187 16.373C93.6969 16.8691 93.0777 17.1172 92.2613 17.1172C91.5855 17.1172 91.0699 16.9219 90.7145 16.5312C90.3629 16.1367 90.1852 15.5547 90.1812 14.7852V10.6602H91.2652V14.7559C91.2652 15.7168 91.6559 16.1973 92.4371 16.1973C93.2652 16.1973 93.816 15.8887 94.0895 15.2715V10.6602H95.1734V17H94.1422L94.1187 16.373ZM98.0512 10.6602L98.0863 11.457C98.5707 10.8477 99.2035 10.543 99.9848 10.543C101.325 10.543 102 11.2988 102.012 12.8105V17H100.928V12.8047C100.924 12.3477 100.819 12.0098 100.612 11.791C100.409 11.5723 100.09 11.4629 99.6566 11.4629C99.3051 11.4629 98.9965 11.5566 98.7309 11.7441C98.4652 11.9316 98.2582 12.1777 98.1098 12.4824V17H97.0258V10.6602H98.0512ZM106.39 16.2324C106.777 16.2324 107.114 16.1152 107.404 15.8809C107.693 15.6465 107.853 15.3535 107.884 15.002H108.909C108.89 15.3652 108.765 15.7109 108.534 16.0391C108.304 16.3672 107.995 16.6289 107.609 16.8242C107.226 17.0195 106.82 17.1172 106.39 17.1172C105.527 17.1172 104.839 16.8301 104.327 16.2559C103.82 15.6777 103.566 14.8887 103.566 13.8887V13.707C103.566 13.0898 103.679 12.541 103.905 12.0605C104.132 11.5801 104.456 11.207 104.878 10.9414C105.304 10.6758 105.806 10.543 106.384 10.543C107.095 10.543 107.685 10.7559 108.154 11.1816C108.626 11.6074 108.878 12.1602 108.909 12.8398H107.884C107.853 12.4297 107.696 12.0938 107.415 11.832C107.138 11.5664 106.794 11.4336 106.384 11.4336C105.833 11.4336 105.405 11.6328 105.101 12.0312C104.8 12.4258 104.65 12.998 104.65 13.748V13.9531C104.65 14.6836 104.8 15.2461 105.101 15.6406C105.402 16.0352 105.831 16.2324 106.39 16.2324ZM111.412 11.4277C111.893 10.8379 112.518 10.543 113.287 10.543C114.627 10.543 115.303 11.2988 115.314 12.8105V17H114.23V12.8047C114.227 12.3477 114.121 12.0098 113.914 11.791C113.711 11.5723 113.393 11.4629 112.959 11.4629C112.607 11.4629 112.299 11.5566 112.033 11.7441C111.768 11.9316 111.561 12.1777 111.412 12.4824V17H110.328V8H111.412V11.4277ZM121.339 10.6602L121.375 11.457C121.859 10.8477 122.492 10.543 123.273 10.543C124.613 10.543 125.289 11.2988 125.3 12.8105V17H124.216V12.8047C124.213 12.3477 124.107 12.0098 123.9 11.791C123.697 11.5723 123.379 11.4629 122.945 11.4629C122.593 11.4629 122.285 11.5566 122.019 11.7441C121.754 11.9316 121.546 12.1777 121.398 12.4824V17H120.314V10.6602H121.339ZM126.848 13.7715C126.848 13.1504 126.969 12.5918 127.211 12.0957C127.457 11.5996 127.797 11.2168 128.231 10.9473C128.668 10.6777 129.166 10.543 129.725 10.543C130.588 10.543 131.286 10.8418 131.817 11.4395C132.352 12.0371 132.62 12.832 132.62 13.8242V13.9004C132.62 14.5176 132.5 15.0723 132.262 15.5645C132.028 16.0527 131.69 16.4336 131.248 16.707C130.811 16.9805 130.307 17.1172 129.737 17.1172C128.877 17.1172 128.18 16.8184 127.645 16.2207C127.114 15.623 126.848 14.832 126.848 13.8477V13.7715ZM127.938 13.9004C127.938 14.6035 128.1 15.168 128.424 15.5938C128.752 16.0195 129.19 16.2324 129.737 16.2324C130.287 16.2324 130.725 16.0176 131.049 15.5879C131.373 15.1543 131.536 14.5488 131.536 13.7715C131.536 13.0762 131.37 12.5137 131.037 12.084C130.709 11.6504 130.272 11.4336 129.725 11.4336C129.19 11.4336 128.758 11.6465 128.43 12.0723C128.102 12.498 127.938 13.1074 127.938 13.9004ZM139.792 15.5059L141.011 10.6602H142.095L140.249 17H139.37L137.829 12.1953L136.329 17H135.45L133.611 10.6602H134.689L135.937 15.4062L137.413 10.6602H138.286L139.792 15.5059ZM150.493 17C150.43 16.875 150.38 16.6523 150.341 16.332C149.837 16.8555 149.235 17.1172 148.536 17.1172C147.911 17.1172 147.397 16.9414 146.995 16.5898C146.596 16.2344 146.397 15.7852 146.397 15.2422C146.397 14.582 146.647 14.0703 147.147 13.707C147.651 13.3398 148.358 13.1562 149.268 13.1562H150.323V12.6582C150.323 12.2793 150.21 11.9785 149.983 11.7559C149.757 11.5293 149.423 11.416 148.981 11.416C148.595 11.416 148.27 11.5137 148.009 11.709C147.747 11.9043 147.616 12.1406 147.616 12.418H146.526C146.526 12.1016 146.637 11.7969 146.86 11.5039C147.087 11.207 147.391 10.9727 147.774 10.8008C148.161 10.6289 148.585 10.543 149.046 10.543C149.776 10.543 150.348 10.7266 150.762 11.0938C151.177 11.457 151.391 11.959 151.407 12.5996V15.5176C151.407 16.0996 151.481 16.5625 151.63 16.9062V17H150.493ZM148.694 16.1738C149.034 16.1738 149.356 16.0859 149.661 15.9102C149.966 15.7344 150.186 15.5059 150.323 15.2246V13.9238H149.473C148.145 13.9238 147.481 14.3125 147.481 15.0898C147.481 15.4297 147.595 15.6953 147.821 15.8867C148.048 16.0781 148.339 16.1738 148.694 16.1738ZM156.998 15.3184C156.998 15.0254 156.886 14.7988 156.664 14.6387C156.445 14.4746 156.06 14.334 155.509 14.2168C154.963 14.0996 154.527 13.959 154.203 13.7949C153.882 13.6309 153.644 13.4355 153.488 13.209C153.336 12.9824 153.259 12.7129 153.259 12.4004C153.259 11.8809 153.478 11.4414 153.916 11.082C154.357 10.7227 154.92 10.543 155.603 10.543C156.322 10.543 156.904 10.7285 157.349 11.0996C157.798 11.4707 158.023 11.9453 158.023 12.5234H156.933C156.933 12.2266 156.806 11.9707 156.552 11.7559C156.302 11.541 155.986 11.4336 155.603 11.4336C155.209 11.4336 154.9 11.5195 154.677 11.6914C154.455 11.8633 154.343 12.0879 154.343 12.3652C154.343 12.627 154.447 12.8242 154.654 12.957C154.861 13.0898 155.234 13.2168 155.773 13.3379C156.316 13.459 156.755 13.6035 157.091 13.7715C157.427 13.9395 157.675 14.1426 157.836 14.3809C158 14.6152 158.082 14.9023 158.082 15.2422C158.082 15.8086 157.855 16.2637 157.402 16.6074C156.949 16.9473 156.361 17.1172 155.638 17.1172C155.13 17.1172 154.681 17.0273 154.291 16.8477C153.9 16.668 153.593 16.418 153.371 16.0977C153.152 15.7734 153.043 15.4238 153.043 15.0488H154.127C154.146 15.4121 154.291 15.7012 154.56 15.916C154.834 16.127 155.193 16.2324 155.638 16.2324C156.048 16.2324 156.377 16.1504 156.623 15.9863C156.873 15.8184 156.998 15.5957 156.998 15.3184Z" fill="white"/>
<path d="M89.8574 35.1328L92.2637 23.3594H94.96L91.3506 39H88.751L85.7754 27.5811L82.7354 39H80.125L76.5156 23.3594H79.2119L81.6396 35.1113L84.626 23.3594H86.9033L89.8574 35.1328ZM101.47 39.2148C99.8154 39.2148 98.4727 38.6956 97.4414 37.6572C96.4173 36.6117 95.9053 35.2223 95.9053 33.4893V33.167C95.9053 32.0068 96.1273 30.972 96.5713 30.0625C97.0225 29.1458 97.6527 28.4333 98.4619 27.9248C99.2712 27.4163 100.174 27.1621 101.169 27.1621C102.752 27.1621 103.973 27.667 104.832 28.6768C105.699 29.6865 106.132 31.1152 106.132 32.9629V34.0156H98.5371C98.6159 34.9753 98.9346 35.7344 99.4932 36.293C100.059 36.8516 100.768 37.1309 101.62 37.1309C102.816 37.1309 103.79 36.6475 104.542 35.6807L105.949 37.0234C105.484 37.7181 104.861 38.2588 104.08 38.6455C103.307 39.0251 102.437 39.2148 101.47 39.2148ZM101.158 29.2568C100.442 29.2568 99.862 29.5075 99.418 30.0088C98.9811 30.5101 98.7018 31.2083 98.5801 32.1035H103.554V31.9102C103.496 31.0365 103.264 30.3776 102.855 29.9336C102.447 29.4824 101.882 29.2568 101.158 29.2568ZM118.367 33.3066C118.367 35.1113 117.963 36.5472 117.153 37.6143C116.351 38.6813 115.245 39.2148 113.834 39.2148C112.473 39.2148 111.413 38.7243 110.654 37.7432L110.525 39H108.162V22.5H110.772V28.4941C111.524 27.6061 112.538 27.1621 113.812 27.1621C115.23 27.1621 116.344 27.6885 117.153 28.7412C117.963 29.7939 118.367 31.2656 118.367 33.1562V33.3066ZM115.757 33.0811C115.757 31.8206 115.535 30.8753 115.091 30.2451C114.647 29.6149 114.002 29.2998 113.157 29.2998C112.026 29.2998 111.231 29.7939 110.772 30.7822V35.5732C111.238 36.583 112.04 37.0879 113.179 37.0879C113.995 37.0879 114.625 36.7835 115.069 36.1748C115.513 35.5661 115.743 34.6458 115.757 33.4141V33.0811ZM135.05 35.3584H128.991L127.724 39H124.898L130.807 23.3594H133.245L139.164 39H136.328L135.05 35.3584ZM129.754 33.167H134.287L132.021 26.6787L129.754 33.167ZM150.357 33.3066C150.357 35.1042 149.949 36.54 149.133 37.6143C148.316 38.6813 147.221 39.2148 145.846 39.2148C144.571 39.2148 143.55 38.7959 142.784 37.958V43.4688H140.174V27.377H142.58L142.688 28.5586C143.454 27.6276 144.496 27.1621 145.813 27.1621C147.231 27.1621 148.341 27.6921 149.144 28.752C149.953 29.8047 150.357 31.2692 150.357 33.1455V33.3066ZM147.758 33.0811C147.758 31.9209 147.525 31.0007 147.06 30.3203C146.601 29.64 145.942 29.2998 145.083 29.2998C144.016 29.2998 143.25 29.7402 142.784 30.6211V35.7773C143.257 36.6797 144.03 37.1309 145.104 37.1309C145.935 37.1309 146.583 36.7979 147.049 36.1318C147.521 35.4587 147.758 34.4417 147.758 33.0811ZM162.754 33.3066C162.754 35.1042 162.346 36.54 161.529 37.6143C160.713 38.6813 159.617 39.2148 158.242 39.2148C156.967 39.2148 155.947 38.7959 155.181 37.958V43.4688H152.57V27.377H154.977L155.084 28.5586C155.85 27.6276 156.892 27.1621 158.21 27.1621C159.628 27.1621 160.738 27.6921 161.54 28.752C162.349 29.8047 162.754 31.2692 162.754 33.1455V33.3066ZM160.154 33.0811C160.154 31.9209 159.922 31.0007 159.456 30.3203C158.998 29.64 158.339 29.2998 157.479 29.2998C156.412 29.2998 155.646 29.7402 155.181 30.6211V35.7773C155.653 36.6797 156.427 37.1309 157.501 37.1309C158.332 37.1309 158.98 36.7979 159.445 36.1318C159.918 35.4587 160.154 34.4417 160.154 33.0811Z" fill="white"/>
</svg>
