<svg width="413" height="74" viewBox="0 0 413 74" fill="none" xmlns="http://www.w3.org/2000/svg">
<g clip-path="url(#clip0)">
<path d="M409.596 0H3.40385C1.52395 0 0 1.52395 0 3.40385V70.3462C0 72.2261 1.52395 73.75 3.40385 73.75H409.596C411.476 73.75 413 72.2261 413 70.3462V3.40385C413 1.52395 411.476 0 409.596 0Z" fill="white"/>
<path fill-rule="evenodd" clip-rule="evenodd" d="M97.5769 17.0193C86.9217 17.0193 78.2885 25.8708 78.2885 36.795C78.2885 45.5306 83.8138 52.9464 91.4802 55.56C92.4471 55.7403 92.7987 55.1352 92.7987 54.6073C92.7987 54.1373 92.7799 52.8949 92.7736 51.247C87.4053 52.4379 86.2751 48.5947 86.2751 48.5947C85.396 46.3095 84.134 45.6979 84.134 45.6979C82.3823 44.4748 84.2658 44.5006 84.2658 44.5006C86.1998 44.6422 87.2169 46.5348 87.2169 46.5348C88.9373 49.5604 91.7314 48.6849 92.8301 48.1827C93.006 46.9018 93.5083 46.0327 94.0545 45.5369C89.7723 45.0413 85.2704 43.3418 85.2704 35.7651C85.2704 33.602 86.0239 31.8382 87.2545 30.4542C87.0599 29.9584 86.3944 27.9436 87.443 25.2205C87.443 25.2205 89.0629 24.6927 92.7486 27.2483C94.2869 26.8106 95.9382 26.5917 97.5769 26.5852C99.2156 26.5917 100.867 26.8106 102.405 27.2483C106.091 24.6927 107.705 25.2205 107.705 25.2205C108.759 27.9436 108.1 29.9584 107.899 30.4542C109.136 31.8382 109.877 33.602 109.877 35.7651C109.877 43.3612 105.369 45.0284 101.074 45.5241C101.765 46.1292 102.38 47.3395 102.38 49.1805C102.38 51.8263 102.361 53.9571 102.361 54.6073C102.361 55.1352 102.707 55.7531 103.686 55.56C111.346 52.94 116.865 45.5306 116.865 36.795C116.865 25.8708 108.232 17.0193 97.5769 17.0193Z" fill="black"/>
<path d="M132.624 43.4712H141.034V45.3847H130.271V27.6387H132.624V43.4712ZM142.627 38.6691C142.627 37.3771 142.879 36.2151 143.382 35.1832C143.895 34.1512 144.602 33.355 145.504 32.7942C146.414 32.2336 147.45 31.9533 148.612 31.9533C150.408 31.9533 151.858 32.5749 152.963 33.8181C154.076 35.0613 154.632 36.7148 154.632 38.7787V38.9372C154.632 40.221 154.385 41.3748 153.889 42.3986C153.402 43.4142 152.699 44.2065 151.781 44.7753C150.871 45.3441 149.823 45.6284 148.636 45.6284C146.849 45.6284 145.398 45.0069 144.285 43.7637C143.179 42.5205 142.627 40.8751 142.627 38.8274V38.6691ZM144.894 38.9372C144.894 40.3997 145.232 41.5739 145.906 42.4596C146.589 43.3453 147.499 43.7881 148.636 43.7881C149.782 43.7881 150.692 43.3412 151.367 42.4473C152.041 41.5454 152.378 40.286 152.378 38.6691C152.378 37.2226 152.033 36.0526 151.342 35.1588C150.66 34.2569 149.749 33.8059 148.612 33.8059C147.499 33.8059 146.6 34.2487 145.918 35.1344C145.235 36.0201 144.894 37.2877 144.894 38.9372ZM156.799 38.6812C156.799 36.6254 157.275 34.9922 158.226 33.7815C159.176 32.5627 160.436 31.9533 162.004 31.9533C163.613 31.9533 164.868 32.522 165.77 33.6596L165.88 32.1971H167.939V45.0678C167.939 46.7742 167.432 48.1189 166.416 49.1022C165.409 50.0853 164.052 50.577 162.345 50.577C161.395 50.577 160.464 50.3737 159.554 49.9676C158.644 49.5612 157.949 49.0046 157.47 48.2977L158.64 46.9448C159.606 48.1392 160.789 48.7365 162.186 48.7365C163.284 48.7365 164.137 48.4278 164.746 47.8102C165.363 47.1926 165.672 46.3232 165.672 45.2019V44.0683C164.77 45.1084 163.539 45.6284 161.979 45.6284C160.436 45.6284 159.184 45.0069 158.226 43.7637C157.275 42.5205 156.799 40.8263 156.799 38.6812ZM159.066 38.9372C159.066 40.4241 159.371 41.5942 159.981 42.4473C160.59 43.2924 161.443 43.7149 162.54 43.7149C163.962 43.7149 165.006 43.069 165.672 41.777V35.756C164.982 34.4965 163.946 33.8668 162.564 33.8668C161.467 33.8668 160.61 34.2934 159.992 35.1466C159.375 35.9998 159.066 37.2633 159.066 38.9372ZM173.677 45.3847H171.422V32.1971H173.677V45.3847ZM171.24 28.699C171.24 28.3334 171.35 28.0245 171.569 27.7727C171.796 27.5208 172.129 27.3948 172.568 27.3948C173.007 27.3948 173.34 27.5208 173.568 27.7727C173.795 28.0245 173.908 28.3334 173.908 28.699C173.908 29.0646 173.795 29.3694 173.568 29.6131C173.34 29.8569 173.007 29.9788 172.568 29.9788C172.129 29.9788 171.796 29.8569 171.569 29.6131C171.35 29.3694 171.24 29.0646 171.24 28.699ZM179.306 32.1971L179.378 33.8547C180.386 32.5871 181.702 31.9533 183.328 31.9533C186.114 31.9533 187.52 33.5256 187.544 36.6701V45.3847H185.29V36.6579C185.282 35.7073 185.063 35.0044 184.631 34.5494C184.209 34.0944 183.547 33.8668 182.645 33.8668C181.914 33.8668 181.272 34.0618 180.719 34.4519C180.167 34.8419 179.736 35.3538 179.427 35.9876V45.3847H177.172V32.1971H179.306ZM208.564 42.2767L211.099 32.1971H213.353L209.514 45.3847H207.686L204.48 35.3904L201.36 45.3847H199.532L195.705 32.1971H197.947L200.543 42.0695L203.615 32.1971H205.431L208.564 42.2767ZM217.982 45.3847H215.727V32.1971H217.982V45.3847ZM215.544 28.699C215.544 28.3334 215.654 28.0245 215.873 27.7727C216.101 27.5208 216.434 27.3948 216.873 27.3948C217.312 27.3948 217.644 27.5208 217.872 27.7727C218.099 28.0245 218.214 28.3334 218.214 28.699C218.214 29.0646 218.099 29.3694 217.872 29.6131C217.644 29.8569 217.312 29.9788 216.873 29.9788C216.434 29.9788 216.101 29.8569 215.873 29.6131C215.654 29.3694 215.544 29.0646 215.544 28.699ZM224.536 29.0037V32.1971H226.998V33.94H224.536V42.1183C224.536 42.6464 224.646 43.0446 224.865 43.3127C225.085 43.5727 225.458 43.7028 225.987 43.7028C226.247 43.7028 226.604 43.654 227.059 43.5565V45.3847C226.466 45.5472 225.889 45.6284 225.329 45.6284C224.321 45.6284 223.561 45.3238 223.049 44.7144C222.538 44.105 222.281 43.2396 222.281 42.1183V33.94H219.881V32.1971H222.281V29.0037H224.536ZM231.774 33.7937C232.773 32.5668 234.072 31.9533 235.673 31.9533C238.461 31.9533 239.866 33.5256 239.891 36.6701V45.3847H237.636V36.6579C237.627 35.7073 237.408 35.0044 236.978 34.5494C236.555 34.0944 235.893 33.8668 234.991 33.8668C234.259 33.8668 233.617 34.0618 233.065 34.4519C232.512 34.8419 232.082 35.3538 231.774 35.9876V45.3847H229.518V26.6636H231.774V33.7937ZM263.252 43.142C262.594 43.9303 261.664 44.5438 260.461 44.9825C259.258 45.4132 257.926 45.6284 256.464 45.6284C254.928 45.6284 253.579 45.2953 252.417 44.6291C251.263 43.9547 250.37 42.9796 249.736 41.7039C249.11 40.4282 248.789 38.929 248.772 37.2064V35.9998C248.772 34.2284 249.07 32.6968 249.663 31.4048C250.264 30.1047 251.126 29.1134 252.247 28.4309C253.375 27.7402 254.696 27.3948 256.207 27.3948C258.312 27.3948 259.957 27.8986 261.144 28.9063C262.33 29.9056 263.033 31.3642 263.252 33.2818H259.693C259.531 32.2661 259.17 31.5227 258.608 31.0514C258.056 30.58 257.292 30.3444 256.318 30.3444C255.074 30.3444 254.128 30.8116 253.478 31.7461C252.827 32.6806 252.498 34.07 252.49 35.9144V37.0479C252.49 38.9087 252.843 40.3144 253.55 41.2651C254.257 42.2157 255.293 42.6911 256.659 42.6911C258.032 42.6911 259.011 42.3986 259.595 41.8135V38.7543H256.269V36.0607H263.252V43.142ZM270.087 45.3847H266.552V32.1971H270.087V45.3847ZM266.345 28.7843C266.345 28.2561 266.52 27.8214 266.869 27.4802C267.227 27.1389 267.71 26.9683 268.32 26.9683C268.921 26.9683 269.4 27.1389 269.757 27.4802C270.116 27.8214 270.294 28.2561 270.294 28.7843C270.294 29.3206 270.111 29.7594 269.746 30.1007C269.388 30.442 268.913 30.6126 268.32 30.6126C267.726 30.6126 267.247 30.442 266.881 30.1007C266.523 29.7594 266.345 29.3206 266.345 28.7843ZM277.592 28.9549V32.1971H279.846V34.781H277.592V41.3626C277.592 41.8502 277.685 42.1995 277.872 42.4108C278.058 42.6221 278.416 42.7277 278.944 42.7277C279.334 42.7277 279.679 42.6992 279.98 42.6424V45.3115C279.289 45.5228 278.579 45.6284 277.847 45.6284C275.377 45.6284 274.117 44.3813 274.069 41.8867V34.781H272.143V32.1971H274.069V28.9549H277.592ZM285.62 33.6352C286.554 32.5139 287.728 31.9533 289.142 31.9533C292.002 31.9533 293.452 33.6149 293.493 36.9383V45.3847H289.971V37.0358C289.971 36.2801 289.809 35.7235 289.483 35.366C289.159 35.0004 288.618 34.8175 287.862 34.8175C286.831 34.8175 286.083 35.2156 285.62 36.012V45.3847H282.097V26.6636H285.62V33.6352ZM304.423 44.0441C303.554 45.1003 302.351 45.6284 300.815 45.6284C299.401 45.6284 298.321 45.2222 297.573 44.4096C296.834 43.5971 296.456 42.4067 296.44 40.8385V32.1971H299.962V40.7166C299.962 42.0898 300.588 42.7765 301.839 42.7765C303.033 42.7765 303.855 42.362 304.302 41.5333V32.1971H307.836V45.3847H304.521L304.423 44.0441ZM322.75 38.9128C322.75 41.0254 322.3 42.6749 321.398 43.8612C320.496 45.0394 319.237 45.6284 317.62 45.6284C316.189 45.6284 315.048 45.08 314.194 43.983L314.037 45.3847H310.868V26.6636H314.389V33.3792C315.202 32.4287 316.271 31.9533 317.595 31.9533C319.204 31.9533 320.463 32.5464 321.373 33.7328C322.292 34.911 322.75 36.5726 322.75 38.7177V38.9128ZM319.229 38.6568C319.229 37.3242 319.018 36.3532 318.594 35.7438C318.172 35.1263 317.543 34.8175 316.705 34.8175C315.584 34.8175 314.811 35.2766 314.389 36.1948V41.3992C314.821 42.3255 315.6 42.7886 316.73 42.7886C317.867 42.7886 318.615 42.228 318.972 41.1067C319.143 40.5703 319.229 39.7537 319.229 38.6568Z" fill="black"/>
</g>
<defs>
<clipPath id="clip0">
<rect width="413" height="73.75" fill="white"/>
</clipPath>
</defs>
</svg>
