<svg width="42" height="27" viewBox="0 0 42 27" fill="none" xmlns="http://www.w3.org/2000/svg">
<path d="M3.8621 8.5592L0 26.0403H9.5028L13.2124 9.52473C13.4157 8.91493 14.3082 7.54286 16.0582 7.54286C17.8368 7.54286 18.074 8.93187 17.9893 9.67718L14.4321 26.0403H24.1381L27.2888 9.67718C27.5768 8.91493 28.5897 7.44123 30.3378 7.6445C32.0859 7.84777 32.2519 9.28759 32.1164 9.98209L28.8641 26.0403L38.3669 25.9387C38.3669 25.9387 41.9653 8.66084 41.9749 8.50839C42.3307 2.8677 38.8751 0.0727379 33.2344 0.0727379C28.7218 0.0727379 25.0528 2.3087 23.7824 3.42668C21.953 1.6989 21.0383 0.276023 16.0074 0.0219305C7.95796 -0.384617 5.03089 4.95119 3.8621 8.5592Z" fill="#FB5F37"/>
</svg>
