<svg width="222" height="27" viewBox="0 0 222 27" fill="none" xmlns="http://www.w3.org/2000/svg">
<path d="M49.542 21.8056C49.3948 21.8056 49.2677 21.7537 49.1606 21.65C49.0535 21.5463 49 21.4232 49 21.2806V8.71945C49 8.57682 49.0535 8.45374 49.1606 8.35C49.2677 8.24626 49.3948 8.19445 49.542 8.19445H59.8406C59.9879 8.19445 60.1149 8.24626 60.222 8.35C60.3291 8.45374 60.3826 8.57682 60.3826 8.71945V11.4611C60.3826 11.6037 60.3291 11.7268 60.222 11.8306C60.1149 11.9343 59.9879 11.9861 59.8406 11.9861H53.8181V13.2111H59.399C59.5462 13.2111 59.6733 13.2629 59.7804 13.3667C59.8875 13.4704 59.941 13.5935 59.941 13.7361V16.2639C59.941 16.4065 59.8875 16.5296 59.7804 16.6333C59.6733 16.7371 59.5462 16.7889 59.399 16.7889H53.8181V18.0139H60.0012C60.1485 18.0139 60.2755 18.0657 60.3826 18.1694C60.4897 18.2732 60.5432 18.3963 60.5432 18.5389V21.2806C60.5432 21.4232 60.4897 21.5463 60.3826 21.65C60.2755 21.7537 60.1485 21.8056 60.0012 21.8056H49.542ZM69.6572 21.8056C69.51 21.8056 69.3829 21.7537 69.2758 21.65C69.1688 21.5463 69.1151 21.4232 69.1151 21.2806V12.375H65.7827C65.6355 12.375 65.5083 12.3232 65.4012 12.2194C65.2942 12.1157 65.2406 11.9926 65.2406 11.85V8.71945C65.2406 8.57682 65.2942 8.45374 65.4012 8.35C65.5083 8.24626 65.6355 8.19445 65.7827 8.19445H77.5467C77.694 8.19445 77.8212 8.24626 77.9282 8.35C78.0353 8.45374 78.0888 8.57682 78.0888 8.71945V11.85C78.0888 11.9926 78.0353 12.1157 77.9282 12.2194C77.8212 12.3232 77.694 12.375 77.5467 12.375H74.2143V21.2806C74.2143 21.4232 74.1607 21.5463 74.0536 21.65C73.9466 21.7537 73.8195 21.8056 73.6722 21.8056H69.6572ZM83.6863 21.8056C83.5391 21.8056 83.412 21.7537 83.3049 21.65C83.1978 21.5463 83.1443 21.4232 83.1443 21.2806V8.71945C83.1443 8.57682 83.1978 8.45374 83.3049 8.35C83.412 8.24626 83.5391 8.19445 83.6863 8.19445H89.6286C91.5558 8.19445 93.0614 8.61571 94.1455 9.45833C95.2296 10.2879 95.7716 11.4417 95.7716 12.9194C95.7716 13.7621 95.5776 14.5074 95.1894 15.1556C94.8013 15.7907 94.2727 16.3157 93.6035 16.7306L96.0727 21.1639C96.1129 21.2417 96.1329 21.3129 96.1329 21.3778C96.1329 21.4944 96.0861 21.5982 95.9924 21.6889C95.9121 21.7667 95.8117 21.8056 95.6913 21.8056H91.5759C91.335 21.8056 91.141 21.7537 90.9937 21.65C90.8599 21.5333 90.7662 21.4102 90.7127 21.2806L88.9862 17.5667H88.1631V21.2806C88.1631 21.4232 88.1096 21.5463 88.0025 21.65C87.8954 21.7537 87.7683 21.8056 87.6211 21.8056H83.6863ZM89.6286 13.8722C89.923 13.8722 90.1505 13.7815 90.3111 13.6C90.4717 13.4056 90.552 13.1657 90.552 12.8806C90.552 12.5954 90.4717 12.349 90.3111 12.1417C90.1639 11.9213 89.9364 11.8111 89.6286 11.8111H88.1631V13.8722H89.6286ZM100.583 21.8056C100.463 21.8056 100.356 21.7667 100.262 21.6889C100.182 21.5982 100.142 21.4944 100.142 21.3778C100.142 21.326 100.148 21.2806 100.162 21.2417L104.638 8.83611C104.692 8.66763 104.792 8.51849 104.94 8.38889C105.087 8.25929 105.288 8.19445 105.542 8.19445H109.898C110.152 8.19445 110.353 8.25929 110.5 8.38889C110.648 8.51849 110.748 8.66763 110.801 8.83611L115.278 21.2417C115.291 21.2806 115.298 21.326 115.298 21.3778C115.298 21.4944 115.251 21.5982 115.158 21.6889C115.078 21.7667 114.977 21.8056 114.857 21.8056H111.143C110.741 21.8056 110.48 21.6435 110.36 21.3194L109.878 20.0361H105.562L105.08 21.3194C104.96 21.6435 104.699 21.8056 104.297 21.8056H100.583ZM108.854 16.2444L107.71 12.6278L106.586 16.2444H108.854ZM125.66 22C124.241 22 123.036 21.8121 122.047 21.4361C121.069 21.0602 120.333 20.5611 119.838 19.9389C119.342 19.3037 119.082 18.6102 119.055 17.8583C119.055 17.7417 119.096 17.6444 119.176 17.5667C119.269 17.476 119.377 17.4306 119.497 17.4306H123.311C123.498 17.4306 123.646 17.4565 123.753 17.5083C123.873 17.5472 124.014 17.6315 124.175 17.7611C124.562 18.0593 125.058 18.2083 125.66 18.2083C126.115 18.2083 126.476 18.1629 126.744 18.0722C127.025 17.9685 127.166 17.8324 127.166 17.6639C127.166 17.4306 126.985 17.2556 126.624 17.1389C126.262 17.0093 125.58 16.8796 124.576 16.75C121.123 16.3093 119.397 14.8833 119.397 12.4722C119.397 11.6037 119.651 10.8324 120.16 10.1583C120.682 9.47126 121.404 8.93985 122.328 8.56389C123.251 8.18793 124.315 8 125.52 8C126.777 8 127.881 8.20737 128.832 8.62222C129.782 9.03707 130.511 9.56207 131.02 10.1972C131.528 10.8194 131.796 11.4287 131.823 12.025C131.823 12.1417 131.776 12.2454 131.683 12.3361C131.602 12.4139 131.508 12.4528 131.402 12.4528H127.387C127.199 12.4528 127.051 12.4333 126.945 12.3944C126.838 12.3426 126.717 12.2583 126.584 12.1417C126.303 11.9083 125.947 11.7917 125.52 11.7917C124.877 11.7917 124.556 11.9732 124.556 12.3361C124.556 12.5306 124.71 12.6926 125.018 12.8222C125.339 12.9518 125.927 13.0685 126.784 13.1722C128.122 13.3407 129.193 13.5935 129.996 13.9306C130.812 14.2676 131.402 14.7213 131.763 15.2917C132.137 15.849 132.325 16.5556 132.325 17.4111C132.325 18.3315 132.037 19.1417 131.462 19.8417C130.886 20.5287 130.09 21.0602 129.073 21.4361C128.069 21.8121 126.931 22 125.66 22ZM137.951 21.8056C137.804 21.8056 137.677 21.7537 137.57 21.65C137.462 21.5463 137.409 21.4232 137.409 21.2806V8.71945C137.409 8.57682 137.462 8.45374 137.57 8.35C137.677 8.24626 137.804 8.19445 137.951 8.19445H148.25C148.397 8.19445 148.524 8.24626 148.631 8.35C148.739 8.45374 148.792 8.57682 148.792 8.71945V11.4611C148.792 11.6037 148.739 11.7268 148.631 11.8306C148.524 11.9343 148.397 11.9861 148.25 11.9861H142.227V13.2111H147.808C147.956 13.2111 148.082 13.2629 148.19 13.3667C148.297 13.4704 148.35 13.5935 148.35 13.7361V16.2639C148.35 16.4065 148.297 16.5296 148.19 16.6333C148.082 16.7371 147.956 16.7889 147.808 16.7889H142.227V18.0139H148.41C148.558 18.0139 148.684 18.0657 148.792 18.1694C148.899 18.2732 148.952 18.3963 148.952 18.5389V21.2806C148.952 21.4232 148.899 21.5463 148.792 21.65C148.684 21.7537 148.558 21.8056 148.41 21.8056H137.951ZM154.955 21.8056C154.807 21.8056 154.681 21.7537 154.573 21.65C154.466 21.5463 154.413 21.4232 154.413 21.2806V8.71945C154.413 8.57682 154.466 8.45374 154.573 8.35C154.681 8.24626 154.807 8.19445 154.955 8.19445H158.127C158.501 8.19445 158.776 8.34349 158.95 8.64167L162.343 14.0278V8.71945C162.343 8.57682 162.396 8.45374 162.503 8.35C162.611 8.24626 162.737 8.19445 162.885 8.19445H166.518C166.666 8.19445 166.792 8.24626 166.9 8.35C167.007 8.45374 167.06 8.57682 167.06 8.71945V21.2806C167.06 21.4232 167.007 21.5463 166.9 21.65C166.792 21.7537 166.666 21.8056 166.518 21.8056H163.346C163.118 21.8056 162.945 21.7602 162.824 21.6694C162.704 21.5787 162.604 21.475 162.523 21.3583L159.131 16.4V21.2806C159.131 21.4232 159.077 21.5463 158.97 21.65C158.863 21.7537 158.736 21.8056 158.588 21.8056H154.955ZM178.749 22C177.33 22 176.125 21.8121 175.135 21.4361C174.158 21.0602 173.422 20.5611 172.927 19.9389C172.431 19.3037 172.17 18.6102 172.144 17.8583C172.144 17.7417 172.184 17.6444 172.265 17.5667C172.358 17.476 172.465 17.4306 172.586 17.4306H176.4C176.587 17.4306 176.734 17.4565 176.842 17.5083C176.962 17.5472 177.103 17.6315 177.263 17.7611C177.651 18.0593 178.147 18.2083 178.749 18.2083C179.204 18.2083 179.565 18.1629 179.833 18.0722C180.114 17.9685 180.255 17.8324 180.255 17.6639C180.255 17.4306 180.074 17.2556 179.713 17.1389C179.351 17.0093 178.669 16.8796 177.665 16.75C174.212 16.3093 172.486 14.8833 172.486 12.4722C172.486 11.6037 172.739 10.8324 173.248 10.1583C173.77 9.47126 174.493 8.93985 175.417 8.56389C176.34 8.18793 177.404 8 178.609 8C179.866 8 180.97 8.20737 181.921 8.62222C182.87 9.03707 183.6 9.56207 184.109 10.1972C184.617 10.8194 184.885 11.4287 184.912 12.025C184.912 12.1417 184.865 12.2454 184.772 12.3361C184.691 12.4139 184.597 12.4528 184.491 12.4528H180.475C180.288 12.4528 180.14 12.4333 180.034 12.3944C179.926 12.3426 179.806 12.2583 179.672 12.1417C179.391 11.9083 179.036 11.7917 178.609 11.7917C177.966 11.7917 177.645 11.9732 177.645 12.3361C177.645 12.5306 177.798 12.6926 178.107 12.8222C178.428 12.9518 179.016 13.0685 179.873 13.1722C181.211 13.3407 182.282 13.5935 183.085 13.9306C183.901 14.2676 184.491 14.7213 184.852 15.2917C185.226 15.849 185.414 16.5556 185.414 17.4111C185.414 18.3315 185.126 19.1417 184.551 19.8417C183.975 20.5287 183.179 21.0602 182.162 21.4361C181.158 21.8121 180.02 22 178.749 22ZM196.842 22C194.834 22 193.235 21.5528 192.044 20.6583C190.852 19.7639 190.217 18.4611 190.137 16.75C190.124 16.4 190.117 15.8361 190.117 15.0583C190.117 14.2676 190.124 13.6907 190.137 13.3278C190.177 12.2129 190.478 11.2537 191.04 10.45C191.615 9.64626 192.398 9.03707 193.389 8.62222C194.38 8.20737 195.53 8 196.842 8C198.154 8 199.304 8.20737 200.295 8.62222C201.285 9.03707 202.061 9.64626 202.623 10.45C203.199 11.2537 203.507 12.2129 203.547 13.3278C203.574 14.0537 203.587 14.6306 203.587 15.0583C203.587 15.4861 203.574 16.05 203.547 16.75C203.467 18.4611 202.831 19.7639 201.64 20.6583C200.448 21.5528 198.849 22 196.842 22ZM196.842 18.2083C197.296 18.2083 197.652 18.0787 197.906 17.8194C198.174 17.5602 198.314 17.1648 198.327 16.6333C198.354 15.8815 198.368 15.3306 198.368 14.9806C198.368 14.6046 198.354 14.0667 198.327 13.3667C198.314 12.8352 198.174 12.4398 197.906 12.1806C197.638 11.9213 197.283 11.7917 196.842 11.7917C196.4 11.7917 196.046 11.9213 195.778 12.1806C195.51 12.4398 195.369 12.8352 195.356 13.3667C195.343 13.7167 195.336 14.2546 195.336 14.9806C195.336 15.7065 195.343 16.2574 195.356 16.6333C195.369 17.1648 195.504 17.5602 195.758 17.8194C196.026 18.0787 196.387 18.2083 196.842 18.2083ZM209.553 21.8056C209.406 21.8056 209.278 21.7537 209.172 21.65C209.065 21.5463 209.011 21.4232 209.011 21.2806V8.71945C209.011 8.57682 209.065 8.45374 209.172 8.35C209.278 8.24626 209.406 8.19445 209.553 8.19445H215.496C217.423 8.19445 218.929 8.61571 220.013 9.45833C221.097 10.2879 221.639 11.4417 221.639 12.9194C221.639 13.7621 221.444 14.5074 221.056 15.1556C220.668 15.7907 220.139 16.3157 219.471 16.7306L221.94 21.1639C221.98 21.2417 222 21.3129 222 21.3778C222 21.4944 221.953 21.5982 221.859 21.6889C221.779 21.7667 221.679 21.8056 221.558 21.8056H217.443C217.202 21.8056 217.007 21.7537 216.861 21.65C216.726 21.5333 216.633 21.4102 216.58 21.2806L214.853 17.5667H214.03V21.2806C214.03 21.4232 213.976 21.5463 213.87 21.65C213.762 21.7537 213.635 21.8056 213.488 21.8056H209.553ZM215.496 13.8722C215.79 13.8722 216.018 13.7815 216.178 13.6C216.339 13.4056 216.419 13.1657 216.419 12.8806C216.419 12.5954 216.339 12.349 216.178 12.1417C216.031 11.9213 215.803 11.8111 215.496 11.8111H214.03V13.8722H215.496Z" fill="white"/>
<path d="M3.8621 8.5592L0 26.0403H9.5028L13.2124 9.52473C13.4157 8.91493 14.3082 7.54286 16.0582 7.54286C17.8368 7.54286 18.074 8.93187 17.9893 9.67718L14.4321 26.0403H24.1381L27.2888 9.67718C27.5768 8.91493 28.5897 7.44123 30.3378 7.6445C32.0859 7.84777 32.2519 9.28759 32.1164 9.98209L28.8641 26.0403L38.3669 25.9387C38.3669 25.9387 41.9653 8.66084 41.9749 8.50839C42.3307 2.8677 38.8751 0.0727379 33.2344 0.0727379C28.7218 0.0727379 25.0528 2.3087 23.7824 3.42668C21.953 1.6989 21.0383 0.276023 16.0074 0.0219305C7.95796 -0.384617 5.03089 4.95119 3.8621 8.5592Z" fill="#FB5F37"/>
</svg>
