<svg width="83" height="50" viewBox="0 0 83 50" fill="none" xmlns="http://www.w3.org/2000/svg">
<path d="M7.57275 16.4345L0 50H18.6329L25.9068 18.2885C26.3053 17.1176 28.0553 14.4831 31.4867 14.4831C34.9741 14.4831 35.4391 17.1501 35.2731 18.5812L28.2982 50H47.3297L53.5074 18.5812C54.0721 17.1176 56.0583 14.2879 59.4859 14.6782C62.9136 15.0685 63.2391 17.8331 62.9734 19.1666L56.5963 50L75.2293 49.8049C75.2293 49.8049 82.2849 16.6297 82.3038 16.337C83.0013 5.50627 76.2257 0.139664 65.1655 0.139664C56.3173 0.139664 49.1232 4.43293 46.6322 6.57956C43.0451 3.26206 41.2515 0.529992 31.387 0.0421089C15.6038 -0.738504 9.8645 9.5068 7.57275 16.4345Z" fill="#FB5F37"/>
</svg>
